# xmcd CD database file
#
# Track frame offsets:
#	150
#	17342
#	32502
#	42449
#	55791
#	74209
#	88029
#	104434
#	120530
#	134511
#	154135
#	168397
#	187690
#	203291
#
# Disc length: 2923 seconds
#
# Revision: 0
# Processed by: cddbd v1.5PL3 Copyright (c) Steve Scherf et al.
# Submitted via: CDex 1.50beta10
#
DISCID=b30b690e
DTITLE=Big Al Calhoun - Harmonica Blues With Henry Townsend
DYEAR=2001
DGENRE=Blues
TTITLE0=Black Panther
TTITLE1=Good Morning Little Schoolgirl
TTITLE2=Al's Boogie Woogie
TTITLE3=Buy Me An Airplane
TTITLE4=Shake Your Boogie
TTITLE5=Medly: It's Too Late Brother - My Babe
TTITLE6=That's All Right
TTITLE7=Betty Lou
TTITLE8=Can't You See
TTITLE9=Love Was In Out Hearts
TTITLE10=Wake Up Old Maid
TTITLE11=Tears Come Rollin' Down
TTITLE12=Tin Pan Alley
TTITLE13=Old Story Blues
EXTD=YEAR: 2001
EXTT0=
EXTT1=
EXTT2=
EXTT3=
EXTT4=
EXTT5=
EXTT6=
EXTT7=
EXTT8=
EXTT9=
EXTT10=
EXTT11=
EXTT12=
EXTT13=
PLAYORDER=
